STARTFONT 2.1
COMMENT $XConsortium: luBS14.bdf,v 1.7 94/04/02 16:23:09 gildea Exp $
COMMENT  (c) Copyright Bigelow & Holmes 1986, 1985. Lucida is a registered
COMMENT  trademark of Bigelow & Holmes. See LEGAL NOTICE file for terms 
COMMENT  of the license. 
COMMENT  
COMMENT  Translation to ISO8859-2 by Cub Soft;  Petr.Kolar@vslib.cz
COMMENT  
FONT -B&H-Lucida-Bold-R-Normal-Sans-20-140-100-100-P-127-ISO8859-2
SIZE 14 100 100
FONTBOUNDINGBOX 39 22 -13 -4
STARTPROPERTIES 20
COMMENT Begin LogicalFontDescription
FONTNAME_REGISTRY ""
FOUNDRY "B&H"
FAMILY_NAME "Lucida"
WEIGHT_NAME "Bold"
SLANT "R"
SETWIDTH_NAME "Normal"
ADD_STYLE_NAME "Sans"
PIXEL_SIZE 20
POINT_SIZE 140
RESOLUTION_X 100
RESOLUTION_Y 100
SPACING "P"
AVERAGE_WIDTH 127
CHARSET_REGISTRY "ISO8859"
CHARSET_ENCODING "2"
COMMENT END LogicalFontDescription
FONT_ASCENT 18
FONT_DESCENT 5
DEFAULT_CHAR 0
COPYRIGHT "Copyright Bigelow & Holmes 1986, 1985., Copyright 1996 Cub Soft"
FACE_NAME "Lucida Sans Bold"
ENDPROPERTIES
CHARS 191
STARTCHAR space
ENCODING 32
SWIDTH 343 0
DWIDTH 7 0
BBX 1 1 0 0
BITMAP
00
ENDCHAR
STARTCHAR exclam
ENCODING 33
SWIDTH 265 0
DWIDTH 7 0
BBX 3 14 2 0
BITMAP
e0
e0
e0
e0
e0
e0
60
60
60
60
00
00
e0
e0
ENDCHAR
STARTCHAR quotedbl
ENCODING 34
SWIDTH 530 0
DWIDTH 11 0
BBX 9 6 1 8
BITMAP
f380
f380
e380
6300
6300
6300
ENDCHAR
STARTCHAR numbersign
ENCODING 35
SWIDTH 687 0
DWIDTH 14 0
BBX 13 14 0 0
BITMAP
0670
0660
0c60
7ff8
7ff8
1cc0
18c0
19c0
fff0
fff0
3180
3380
3300
7300
ENDCHAR
STARTCHAR dollar
ENCODING 36
SWIDTH 687 0
DWIDTH 14 0
BBX 10 21 2 -3
BITMAP
0c00
0c00
0c00
0c00
3f80
7f80
7480
f400
fc00
7c00
3f00
1f80
0f80
0bc0
09c0
cbc0
ff80
ff00
0c00
0c00
0c00
ENDCHAR
STARTCHAR percent
ENCODING 37
SWIDTH 898 0
DWIDTH 18 0
BBX 17 14 0 0
BITMAP
380e00
7c0c00
ce1800
c63800
c67000
cee000
7cc000
398000
039f00
073f80
0e3180
0c3180
183f80
381f00
ENDCHAR
STARTCHAR ampersand
ENCODING 38
SWIDTH 792 0
DWIDTH 16 0
BBX 15 14 0 0
BITMAP
07c0
1fe0
1c30
1c30
1ee0
0fc0
3f06
7f8e
e3cc
e1dc
e1f8
f0f0
7ff8
1fbc
ENDCHAR
STARTCHAR apostrophe
ENCODING 39
SWIDTH 265 0
DWIDTH 5 0
BBX 4 6 1 8
BITMAP
f0
f0
f0
70
60
c0
ENDCHAR
STARTCHAR parenleft
ENCODING 40
SWIDTH 386 0
DWIDTH 8 0
BBX 5 18 1 -4
BITMAP
08
18
38
70
70
60
e0
e0
e0
e0
e0
e0
60
70
70
38
18
08
ENDCHAR
STARTCHAR parenright
ENCODING 41
SWIDTH 386 0
DWIDTH 8 0
BBX 5 18 2 -4
BITMAP
80
c0
e0
70
70
30
38
38
38
38
38
38
30
70
70
e0
c0
80
ENDCHAR
STARTCHAR asterisk
ENCODING 42
SWIDTH 464 0
DWIDTH 9 0
BBX 8 6 1 8
BITMAP
18
5a
e7
14
7e
24
ENDCHAR
STARTCHAR plus
ENCODING 43
SWIDTH 687 0
DWIDTH 14 0
BBX 12 12 1 0
BITMAP
0600
0600
0600
0600
0600
fff0
fff0
0600
0600
0600
0600
0600
ENDCHAR
STARTCHAR comma
ENCODING 44
SWIDTH 343 0
DWIDTH 7 0
BBX 4 7 1 -3
BITMAP
f0
f0
f0
f0
70
60
c0
ENDCHAR
STARTCHAR minus
ENCODING 45
SWIDTH 687 0
DWIDTH 14 0
BBX 12 2 1 5
BITMAP
fff0
fff0
ENDCHAR
STARTCHAR period
ENCODING 46
SWIDTH 343 0
DWIDTH 7 0
BBX 4 3 1 0
BITMAP
f0
f0
f0
ENDCHAR
STARTCHAR slash
ENCODING 47
SWIDTH 596 0
DWIDTH 12 0
BBX 12 17 0 -3
BITMAP
0070
0060
00c0
00c0
0180
0380
0300
0700
0600
0e00
0c00
1c00
1800
3000
3000
6000
e000
ENDCHAR
STARTCHAR zero
ENCODING 48
SWIDTH 687 0
DWIDTH 14 0
BBX 12 14 1 0
BITMAP
0f00
3fc0
70e0
6060
e070
e070
e070
e070
e070
e070
6060
70e0
3fc0
0f00
ENDCHAR
STARTCHAR one
ENCODING 49
SWIDTH 687 0
DWIDTH 14 0
BBX 5 14 4 0
BITMAP
f8
f8
38
38
38
38
38
38
38
38
38
38
38
38
ENDCHAR
STARTCHAR two
ENCODING 50
SWIDTH 687 0
DWIDTH 14 0
BBX 11 14 1 0
BITMAP
7f00
ffc0
c1e0
00e0
00e0
00e0
01c0
0380
0f00
1e00
7800
f800
ffe0
ffe0
ENDCHAR
STARTCHAR three
ENCODING 51
SWIDTH 687 0
DWIDTH 14 0
BBX 10 14 2 0
BITMAP
7f00
ff80
83c0
01c0
01c0
0380
7e00
7f00
0380
01c0
01c0
83c0
ff80
ff00
ENDCHAR
STARTCHAR four
ENCODING 52
SWIDTH 687 0
DWIDTH 14 0
BBX 11 14 1 0
BITMAP
03c0
03c0
07c0
0dc0
1dc0
39c0
71c0
e1c0
ffe0
ffe0
01c0
01c0
01c0
01c0
ENDCHAR
STARTCHAR five
ENCODING 53
SWIDTH 687 0
DWIDTH 14 0
BBX 10 14 2 0
BITMAP
ffc0
ffc0
c000
c000
c000
fc00
ff00
0780
01c0
01c0
01c0
83c0
ff80
fe00
ENDCHAR
STARTCHAR six
ENCODING 54
SWIDTH 687 0
DWIDTH 14 0
BBX 12 14 1 0
BITMAP
0fe0
3fe0
7820
7000
e000
ef80
ffe0
f0f0
e070
e070
6070
70e0
3fe0
0f80
ENDCHAR
STARTCHAR seven
ENCODING 55
SWIDTH 687 0
DWIDTH 14 0
BBX 10 14 3 0
BITMAP
ffc0
ffc0
01c0
0380
0300
0700
0e00
1c00
1c00
3800
3800
7800
7000
f000
ENDCHAR
STARTCHAR eight
ENCODING 56
SWIDTH 687 0
DWIDTH 14 0
BBX 12 14 1 0
BITMAP
1f80
3fc0
71e0
70e0
78e0
3fc0
1f80
3fe0
61f0
e0f0
e070
f0f0
7fe0
1f80
ENDCHAR
STARTCHAR nine
ENCODING 57
SWIDTH 687 0
DWIDTH 14 0
BBX 12 14 1 0
BITMAP
1f80
7fc0
70e0
e060
e070
e070
f0f0
7ff0
1f70
0070
00e0
41e0
7fc0
7f00
ENDCHAR
STARTCHAR colon
ENCODING 58
SWIDTH 343 0
DWIDTH 7 0
BBX 3 11 2 0
BITMAP
e0
e0
e0
00
00
00
00
00
e0
e0
e0
ENDCHAR
STARTCHAR semicolon
ENCODING 59
SWIDTH 343 0
DWIDTH 7 0
BBX 3 14 2 -3
BITMAP
e0
e0
e0
00
00
00
00
e0
e0
e0
e0
60
40
c0
ENDCHAR
STARTCHAR less
ENCODING 60
SWIDTH 687 0
DWIDTH 14 0
BBX 12 12 1 0
BITMAP
0010
0070
01f0
07c0
1f00
fc00
7c00
1f00
07c0
01f0
0070
0010
ENDCHAR
STARTCHAR equal
ENCODING 61
SWIDTH 687 0
DWIDTH 14 0
BBX 12 8 1 2
BITMAP
fff0
fff0
0000
0000
0000
0000
fff0
fff0
ENDCHAR
STARTCHAR greater
ENCODING 62
SWIDTH 687 0
DWIDTH 14 0
BBX 12 12 1 0
BITMAP
8000
e000
f800
3e00
0f80
03e0
03f0
0f80
3e00
f800
e000
8000
ENDCHAR
STARTCHAR question
ENCODING 63
SWIDTH 572 0
DWIDTH 11 0
BBX 10 14 1 0
BITMAP
ff00
ff80
83c0
01c0
01c0
0300
0600
0c00
3800
3800
0000
0000
3800
3800
ENDCHAR
STARTCHAR at
ENCODING 64
SWIDTH 833 0
DWIDTH 17 0
BBX 16 14 2 0
BITMAP
03f0
0e0c
1802
21f3
6671
4c71
8871
98e1
99a2
9f64
8e78
4000
3040
0fc0
ENDCHAR
STARTCHAR A
ENCODING 65
SWIDTH 773 0
DWIDTH 15 0
BBX 15 14 0 0
BITMAP
0780
07c0
07c0
0de0
0ce0
0ce0
1870
1870
3ff8
3ff8
3038
603c
601c
e01e
ENDCHAR
STARTCHAR B
ENCODING 66
SWIDTH 669 0
DWIDTH 13 0
BBX 10 14 2 0
BITMAP
ff00
ff00
e380
e380
e380
e700
fc00
ff00
e3c0
e1c0
e1c0
e1c0
ff80
ff00
ENDCHAR
STARTCHAR C
ENCODING 67
SWIDTH 726 0
DWIDTH 15 0
BBX 13 14 1 0
BITMAP
07f8
1ff8
7c18
7000
f000
e000
e000
e000
e000
f000
7000
7c08
1ff8
0ff0
ENDCHAR
STARTCHAR D
ENCODING 68
SWIDTH 819 0
DWIDTH 16 0
BBX 14 14 2 0
BITMAP
ffc0
fff0
e0f8
e038
e03c
e01c
e01c
e01c
e01c
e01c
e038
e078
fff0
ffc0
ENDCHAR
STARTCHAR E
ENCODING 69
SWIDTH 645 0
DWIDTH 13 0
BBX 10 14 2 0
BITMAP
ffc0
ffc0
e000
e000
e000
e000
ff00
ff00
e000
e000
e000
e000
ffc0
ffc0
ENDCHAR
STARTCHAR F
ENCODING 70
SWIDTH 602 0
DWIDTH 12 0
BBX 9 14 2 0
BITMAP
ff80
ff80
e000
e000
e000
e000
ff00
ff00
e000
e000
e000
e000
e000
e000
ENDCHAR
STARTCHAR G
ENCODING 71
SWIDTH 759 0
DWIDTH 15 0
BBX 13 14 1 0
BITMAP
07f8
1ff8
3c18
7000
f000
e000
e000
e038
e038
f038
7038
7c38
1ff8
07f0
ENDCHAR
STARTCHAR H
ENCODING 72
SWIDTH 813 0
DWIDTH 16 0
BBX 13 14 2 0
BITMAP
e038
e038
e038
e038
e038
e038
fff8
fff8
e038
e038
e038
e038
e038
e038
ENDCHAR
STARTCHAR I
ENCODING 73
SWIDTH 361 0
DWIDTH 7 0
BBX 3 14 2 0
BITMAP
e0
e0
e0
e0
e0
e0
e0
e0
e0
e0
e0
e0
e0
e0
ENDCHAR
STARTCHAR J
ENCODING 74
SWIDTH 501 0
DWIDTH 10 0
BBX 7 17 1 -3
BITMAP
0e
0e
0e
0e
0e
0e
0e
0e
0e
0e
0e
0e
0e
0e
8e
fc
f8
ENDCHAR
STARTCHAR K
ENCODING 75
SWIDTH 753 0
DWIDTH 15 0
BBX 13 14 2 0
BITMAP
e0f0
e0c0
e180
e380
e700
ee00
fc00
ee00
ef00
e780
e3c0
e1c0
e1e0
e0f8
ENDCHAR
STARTCHAR L
ENCODING 76
SWIDTH 620 0
DWIDTH 12 0
BBX 10 14 2 0
BITMAP
e000
e000
e000
e000
e000
e000
e000
e000
e000
e000
e000
e000
ffc0
ffc0
ENDCHAR
STARTCHAR M
ENCODING 77
SWIDTH 940 0
DWIDTH 19 0
BBX 15 14 2 0
BITMAP
f81e
f83e
f83e
fc3e
dc7e
dc6e
de6e
ceee
cece
cfce
c78e
c78e
c38e
c00e
ENDCHAR
STARTCHAR N
ENCODING 78
SWIDTH 783 0
DWIDTH 16 0
BBX 12 14 2 0
BITMAP
e030
f030
f030
f830
fc30
de30
ce30
c730
c7b0
c3f0
c1f0
c0f0
c0f0
c070
ENDCHAR
STARTCHAR O
ENCODING 79
SWIDTH 855 0
DWIDTH 17 0
BBX 16 14 1 0
BITMAP
07e0
1ff8
3c3c
700e
f00f
e007
e007
e007
e007
f00f
700e
3c3c
1ff8
07e0
ENDCHAR
STARTCHAR P
ENCODING 80
SWIDTH 657 0
DWIDTH 13 0
BBX 10 14 2 0
BITMAP
ff00
ffc0
e3c0
e1c0
e1c0
e1c0
e380
ff80
fe00
e000
e000
e000
e000
e000
ENDCHAR
STARTCHAR Q
ENCODING 81
SWIDTH 855 0
DWIDTH 17 0
BBX 18 18 1 -4
BITMAP
07e000
1ff800
3c3c00
700e00
f00f00
e00700
e00700
e00700
e00700
f00f00
700e00
7c3e00
1ffc00
07f800
007fc0
003f80
000f80
000300
ENDCHAR
STARTCHAR R
ENCODING 82
SWIDTH 734 0
DWIDTH 15 0
BBX 13 14 2 0
BITMAP
ff80
ffc0
e0e0
e0e0
e0e0
e1c0
ff80
ff00
e700
e380
e3c0
e1e0
e1e0
e0f8
ENDCHAR
STARTCHAR S
ENCODING 83
SWIDTH 594 0
DWIDTH 12 0
BBX 11 14 1 0
BITMAP
1fc0
7fc0
f040
f000
f800
7e00
3f00
1fc0
03e0
00e0
00e0
c1e0
ffc0
ff00
ENDCHAR
STARTCHAR T
ENCODING 84
SWIDTH 735 0
DWIDTH 15 0
BBX 13 14 1 0
BITMAP
fff8
fff8
0700
0700
0700
0700
0700
0700
0700
0700
0700
0700
0700
0700
ENDCHAR
STARTCHAR U
ENCODING 85
SWIDTH 783 0
DWIDTH 16 0
BBX 12 14 2 0
BITMAP
e070
e070
e070
e070
e070
e070
e070
e070
e070
e070
e070
70e0
7fe0
1f80
ENDCHAR
STARTCHAR V
ENCODING 86
SWIDTH 735 0
DWIDTH 15 0
BBX 14 14 0 0
BITMAP
f00c
7018
7818
3838
3830
3c30
1c60
1c60
0e60
0ec0
0ec0
07c0
0780
0780
ENDCHAR
STARTCHAR W
ENCODING 87
SWIDTH 940 0
DWIDTH 19 0
BBX 18 14 0 0
BITMAP
e0e0c0
70e180
70e180
71f180
71f180
39f300
39f300
3b3b00
3b3b00
1f3e00
1f3e00
1f3e00
1e1e00
0e1c00
ENDCHAR
STARTCHAR X
ENCODING 88
SWIDTH 699 0
DWIDTH 14 0
BBX 13 14 1 0
BITMAP
7038
3870
3ce0
1cc0
1fc0
0f80
0f00
0780
0f80
1fc0
19c0
30e0
70f0
e078
ENDCHAR
STARTCHAR Y
ENCODING 89
SWIDTH 738 0
DWIDTH 15 0
BBX 13 14 1 0
BITMAP
f038
7830
3860
3ce0
1cc0
0fc0
0f80
0700
0700
0700
0700
0700
0700
0700
ENDCHAR
STARTCHAR Z
ENCODING 90
SWIDTH 675 0
DWIDTH 13 0
BBX 11 14 1 0
BITMAP
ffe0
ffe0
01c0
03c0
0780
0700
0f00
1e00
1c00
3c00
7800
7000
ffe0
ffe0
ENDCHAR
STARTCHAR bracketleft
ENCODING 91
SWIDTH 386 0
DWIDTH 8 0
BBX 5 17 2 -3
BITMAP
f8
f8
e0
e0
e0
e0
e0
e0
e0
e0
e0
e0
e0
e0
e0
f8
f8
ENDCHAR
STARTCHAR backslash
ENCODING 92
SWIDTH 596 0
DWIDTH 12 0
BBX 12 17 0 -3
BITMAP
e000
6000
3000
3000
1800
1c00
0c00
0e00
0600
0700
0300
0380
0180
00c0
00c0
0060
0070
ENDCHAR
STARTCHAR bracketright
ENCODING 93
SWIDTH 386 0
DWIDTH 8 0
BBX 5 17 1 -3
BITMAP
f8
f8
38
38
38
38
38
38
38
38
38
38
38
38
38
f8
f8
ENDCHAR
STARTCHAR asciicircum
ENCODING 94
SWIDTH 687 0
DWIDTH 14 0
BBX 12 12 1 2
BITMAP
0200
0600
0600
0f00
0f00
1f80
1980
39c0
30c0
70e0
6060
e070
ENDCHAR
STARTCHAR underscore
ENCODING 95
SWIDTH 500 0
DWIDTH 10 0
BBX 9 2 1 -3
BITMAP
ff80
ff80
ENDCHAR
STARTCHAR grave
ENCODING 96
SWIDTH 675 0
DWIDTH 13 0
BBX 5 2 4 12
BITMAP
e0
38
ENDCHAR
STARTCHAR a
ENCODING 97
SWIDTH 623 0
DWIDTH 12 0
BBX 11 11 1 0
BITMAP
3f00
7f80
41c0
01c0
3fc0
7fc0
f1c0
e1c0
e3c0
ffe0
79e0
ENDCHAR
STARTCHAR b
ENCODING 98
SWIDTH 696 0
DWIDTH 14 0
BBX 12 14 1 0
BITMAP
e000
e000
e000
e780
efe0
f0e0
e070
e070
e070
e070
e0f0
f0e0
ffe0
e780
ENDCHAR
STARTCHAR c
ENCODING 99
SWIDTH 545 0
DWIDTH 11 0
BBX 8 11 2 0
BITMAP
1f
7f
71
e0
e0
e0
e0
e0
70
7f
1f
ENDCHAR
STARTCHAR d
ENCODING 100
SWIDTH 696 0
DWIDTH 14 0
BBX 12 14 0 0
BITMAP
0070
0070
0070
1f70
7ff0
70f0
f070
e070
e070
e070
e070
70f0
7f70
3e70
ENDCHAR
STARTCHAR e
ENCODING 101
SWIDTH 614 0
DWIDTH 12 0
BBX 11 11 0 0
BITMAP
1f00
3fc0
79c0
f0e0
e0e0
ffe0
ffe0
f000
7820
3fe0
1fc0
ENDCHAR
STARTCHAR f
ENCODING 102
SWIDTH 461 0
DWIDTH 9 0
BBX 8 14 1 0
BITMAP
3f
7f
70
fe
fe
70
70
70
70
70
70
70
70
70
ENDCHAR
STARTCHAR g
ENCODING 103
SWIDTH 696 0
DWIDTH 14 0
BBX 12 15 0 -4
BITMAP
1ef0
7ff0
70f0
f070
e070
e070
e070
e070
70f0
7f70
1e70
00f0
41f0
7fe0
3f80
ENDCHAR
STARTCHAR h
ENCODING 104
SWIDTH 693 0
DWIDTH 14 0
BBX 11 14 1 0
BITMAP
e000
e000
e000
e780
efc0
f0e0
e0e0
e0e0
e0e0
e0e0
e0e0
e0e0
e0e0
e0e0
ENDCHAR
STARTCHAR i
ENCODING 105
SWIDTH 361 0
DWIDTH 7 0
BBX 3 14 2 0
BITMAP
e0
e0
00
e0
e0
e0
e0
e0
e0
e0
e0
e0
e0
e0
ENDCHAR
STARTCHAR j
ENCODING 106
SWIDTH 361 0
DWIDTH 7 0
BBX 7 18 -1 -4
BITMAP
0e
0e
00
0e
0e
0e
0e
0e
0e
0e
0e
0e
0e
0e
0e
8e
fe
fc
ENDCHAR
STARTCHAR k
ENCODING 107
SWIDTH 681 0
DWIDTH 14 0
BBX 11 14 2 0
BITMAP
e000
e000
e000
e1c0
e380
e700
e600
ec00
fe00
ee00
e700
e780
e3c0
e3e0
ENDCHAR
STARTCHAR l
ENCODING 108
SWIDTH 361 0
DWIDTH 7 0
BBX 3 14 2 0
BITMAP
e0
e0
e0
e0
e0
e0
e0
e0
e0
e0
e0
e0
e0
e0
ENDCHAR
STARTCHAR m
ENCODING 109
SWIDTH 1006 0
DWIDTH 20 0
BBX 17 11 2 0
BITMAP
e78f00
efdf80
f1e380
e1c380
e1c380
e1c380
e1c380
e1c380
e1c380
e1c380
e1c380
ENDCHAR
STARTCHAR n
ENCODING 110
SWIDTH 693 0
DWIDTH 14 0
BBX 11 11 1 0
BITMAP
e780
ffc0
f0e0
e0e0
e0e0
e0e0
e0e0
e0e0
e0e0
e0e0
e0e0
ENDCHAR
STARTCHAR o
ENCODING 111
SWIDTH 675 0
DWIDTH 13 0
BBX 12 11 1 0
BITMAP
1f80
3fc0
70e0
e070
e070
e070
e070
e070
70e0
3fc0
1f80
ENDCHAR
STARTCHAR p
ENCODING 112
SWIDTH 696 0
DWIDTH 14 0
BBX 12 15 1 -4
BITMAP
e7c0
efe0
f0e0
e070
e070
e070
e070
e0f0
f0e0
ffe0
ef80
e000
e000
e000
e000
ENDCHAR
STARTCHAR q
ENCODING 113
SWIDTH 696 0
DWIDTH 14 0
BBX 12 15 0 -4
BITMAP
1ef0
7ff0
70f0
f070
e070
e070
e070
e070
70f0
7f70
1e70
0070
0070
0070
0070
ENDCHAR
STARTCHAR r
ENCODING 114
SWIDTH 500 0
DWIDTH 10 0
BBX 7 11 2 0
BITMAP
e6
fe
fe
f0
e0
e0
e0
e0
e0
e0
e0
ENDCHAR
STARTCHAR s
ENCODING 115
SWIDTH 622 0
DWIDTH 12 0
BBX 10 11 1 0
BITMAP
3f80
7f80
f080
f000
fe00
7f80
1fc0
07c0
83c0
ff80
ff00
ENDCHAR
STARTCHAR t
ENCODING 116
SWIDTH 436 0
DWIDTH 9 0
BBX 6 13 1 0
BITMAP
70
70
fc
fc
70
70
70
70
70
70
74
7c
3c
ENDCHAR
STARTCHAR u
ENCODING 117
SWIDTH 693 0
DWIDTH 14 0
BBX 11 11 1 0
BITMAP
e0e0
e0e0
e0e0
e0e0
e0e0
e0e0
e0e0
e0e0
e1e0
7fe0
3ce0
ENDCHAR
STARTCHAR v
ENCODING 118
SWIDTH 663 0
DWIDTH 13 0
BBX 12 11 1 0
BITMAP
f070
7060
7860
38e0
38c0
1cc0
1d80
1d80
0f80
0f00
0f00
ENDCHAR
STARTCHAR w
ENCODING 119
SWIDTH 885 0
DWIDTH 18 0
BBX 17 11 0 0
BITMAP
e1e180
71e300
71e300
73f300
737600
3b7600
3b7600
3e7e00
3e3c00
1e3c00
1c3c00
ENDCHAR
STARTCHAR x
ENCODING 120
SWIDTH 568 0
DWIDTH 11 0
BBX 11 11 0 0
BITMAP
f8c0
79c0
3d80
3f00
1f00
1f00
1f00
1f80
37c0
73c0
e3e0
ENDCHAR
STARTCHAR y
ENCODING 121
SWIDTH 645 0
DWIDTH 13 0
BBX 12 15 0 -4
BITMAP
f070
7060
78e0
38c0
38c0
3d80
1d80
1f00
0f00
0e00
0e00
0e00
1c00
3c00
7800
ENDCHAR
STARTCHAR z
ENCODING 122
SWIDTH 608 0
DWIDTH 12 0
BBX 10 11 1 0
BITMAP
ffc0
ffc0
0780
0700
0f00
1e00
3c00
7800
f000
ffc0
ffc0
ENDCHAR
STARTCHAR braceleft
ENCODING 123
SWIDTH 386 0
DWIDTH 8 0
BBX 6 17 1 -3
BITMAP
1c
3c
38
38
3c
1c
1c
18
e0
f8
1c
1c
1c
38
38
3c
1c
ENDCHAR
STARTCHAR bar
ENCODING 124
SWIDTH 265 0
DWIDTH 5 0
BBX 2 17 2 -3
BITMAP
c0
c0
c0
c0
c0
c0
c0
c0
c0
c0
c0
c0
c0
c0
c0
c0
c0
ENDCHAR
STARTCHAR braceright
ENCODING 125
SWIDTH 386 0
DWIDTH 8 0
BBX 6 17 1 -3
BITMAP
c0
e0
e0
e0
e0
e0
e0
60
1c
7c
e0
e0
e0
e0
e0
e0
c0
ENDCHAR
STARTCHAR asciitilde
ENCODING 126
SWIDTH 687 0
DWIDTH 14 0
BBX 12 5 1 3
BITMAP
7830
7c30
cf30
c3e0
c1e0
ENDCHAR
STARTCHAR nobreakspace
ENCODING 160
SWIDTH 343 0
DWIDTH 7 0
BBX 1 1 0 0
BITMAP
00
ENDCHAR
STARTCHAR Aogonek
ENCODING 161
SWIDTH 773 0
DWIDTH 15 0
BBX 15 16 0 -2
BITMAP
0780
07c0
07c0
0de0
0ce0
0ce0
1870
1870
3ff8
3ff8
3038
603c
601c
e01e
0380
03c0
ENDCHAR
STARTCHAR breve
ENCODING 162
SWIDTH 675 0
DWIDTH 13 0
BBX 7 2 3 12
BITMAP
ee
7c
ENDCHAR
STARTCHAR Lstroke
ENCODING 163
SWIDTH 620 0
DWIDTH 12 0
BBX 12 14 0 0
BITMAP
3800
3800
3800
3a00
3e00
3e00
3c00
f800
f800
b800
3800
3800
3ff0
3ff0
ENDCHAR
STARTCHAR currency
ENCODING 164
SWIDTH 687 0
DWIDTH 14 0
BBX 14 14 0 0
BITMAP
4008
e01c
77b8
3ff0
1ce0
1860
1860
1860
1ce0
1fe0
3ff0
7038
e01c
4008
ENDCHAR
STARTCHAR Lcaron
ENCODING 165
SWIDTH 620 0
DWIDTH 12 0
BBX 10 16 2 0
BITMAP
0f00
0f00
ef00
e700
e600
ec00
e000
e000
e000
e000
e000
e000
e000
e000
ffc0
ffc0
ENDCHAR
STARTCHAR Sacute
ENCODING 166
SWIDTH 594 0
DWIDTH 12 0
BBX 11 17 1 0
BITMAP
0700
1c00
0000
1fc0
7fc0
f040
f000
f800
7e00
3f00
1fc0
03e0
00e0
00e0
c1e0
ffc0
ff00
ENDCHAR
STARTCHAR section
ENCODING 167
SWIDTH 693 0
DWIDTH 14 0
BBX 10 18 2 -4
BITMAP
3f80
7f80
f080
f000
f800
7f00
7f80
c7c0
c1c0
e0c0
fc80
7f80
1f80
07c0
03c0
c3c0
ff80
ff00
ENDCHAR
STARTCHAR diaeresis
ENCODING 168
SWIDTH 675 0
DWIDTH 13 0
BBX 7 2 3 12
BITMAP
ee
ee
ENDCHAR
STARTCHAR Scaron
ENCODING 169
SWIDTH 594 0
DWIDTH 12 0
BBX 11 17 1 0
BITMAP
7700
1c00
0000
1fc0
7fc0
f040
f000
f800
7e00
3f00
1fc0
03e0
00e0
00e0
c1e0
ffc0
ff00
ENDCHAR
STARTCHAR Scedilla
ENCODING 170
SWIDTH 594 0
DWIDTH 12 0
BBX 11 19 1 -5
BITMAP
1fc0
7fc0
f040
f000
f800
7e00
3f00
1fc0
03e0
00e0
00e0
c1e0
ffc0
ff00
0600
0c00
0200
0b00
0f00
ENDCHAR
STARTCHAR Tcaron
ENCODING 171
SWIDTH 735 0
DWIDTH 15 0
BBX 13 17 1 0
BITMAP
1dc0
0700
0000
fff8
fff8
0700
0700
0700
0700
0700
0700
0700
0700
0700
0700
0700
0700
ENDCHAR
STARTCHAR Zacute
ENCODING 172
SWIDTH 675 0
DWIDTH 13 0
BBX 11 17 1 0
BITMAP
0380
0e00
0000
ffe0
ffe0
01c0
03c0
0780
0700
0f00
1e00
1c00
3c00
7800
7000
ffe0
ffe0
ENDCHAR
STARTCHAR hyphen
ENCODING 173
SWIDTH 289 0
DWIDTH 6 0
BBX 4 2 1 6
BITMAP
f0
f0
ENDCHAR
STARTCHAR Zcaron
ENCODING 174
SWIDTH 675 0
DWIDTH 13 0
BBX 11 17 1 0
BITMAP
3b80
0e00
0000
ffe0
ffe0
01c0
03c0
0780
0700
0f00
1e00
1c00
3c00
7800
7000
ffe0
ffe0
ENDCHAR
STARTCHAR Zabovedot
ENCODING 175
SWIDTH 675 0
DWIDTH 13 0
BBX 11 17 1 0
BITMAP
0e00
0e00
0000
ffe0
ffe0
01c0
03c0
0780
0700
0f00
1e00
1c00
3c00
7800
7000
ffe0
ffe0
ENDCHAR
STARTCHAR degree
ENCODING 176
SWIDTH 241 0
DWIDTH 5 0
BBX 3 3 1 11
BITMAP
e0
a0
e0
ENDCHAR
STARTCHAR aogonek
ENCODING 177
SWIDTH 623 0
DWIDTH 12 0
BBX 11 13 1 -2
BITMAP
3f00
7f80
41c0
01c0
3fc0
7fc0
f1c0
e1c0
e3c0
ffe0
79e0
0e00
0f00
ENDCHAR
STARTCHAR ogonek
ENCODING 178
SWIDTH 675 0
DWIDTH 13 0
BBX 4 2 5 -3
BITMAP
e0
f0
ENDCHAR
STARTCHAR lstroke
ENCODING 179
SWIDTH 361 0
DWIDTH 7 0
BBX 7 14 0 0
BITMAP
38
38
38
3a
3e
3e
38
f8
f8
38
38
38
38
38
ENDCHAR
STARTCHAR acute
ENCODING 180
SWIDTH 675 0
DWIDTH 13 0
BBX 5 2 5 12
BITMAP
38
e0
ENDCHAR
STARTCHAR lcaron
ENCODING 181
SWIDTH 617 0
DWIDTH 12 0
BBX 8 16 2 0
BITMAP
0f
0f
ef
e7
e6
ec
e0
e0
e0
e0
e0
e0
e0
e0
e0
e0
ENDCHAR
STARTCHAR sacute
ENCODING 182
SWIDTH 622 0
DWIDTH 12 0
BBX 10 14 1 0
BITMAP
0700
1c00
0000
3f80
7f80
f080
f000
fe00
7f80
1fc0
07c0
83c0
ff80
ff00
ENDCHAR
STARTCHAR caron
ENCODING 183
SWIDTH 675 0
DWIDTH 13 0
BBX 7 2 3 12
BITMAP
ee
38
ENDCHAR
STARTCHAR cedilla
ENCODING 184
SWIDTH 675 0
DWIDTH 13 0
BBX 4 5 5 -4
BITMAP
60
c0
20
b0
f0
ENDCHAR
STARTCHAR scaron
ENCODING 185
SWIDTH 622 0
DWIDTH 12 0
BBX 10 14 1 0
BITMAP
7700
1c00
0000
3f80
7f80
f080
f000
fe00
7f80
1fc0
07c0
83c0
ff80
ff00
ENDCHAR
STARTCHAR scedilla
ENCODING 186
SWIDTH 622 0
DWIDTH 12 0
BBX 10 16 1 -5
BITMAP
3f80
7f80
f080
f000
fe00
7f80
1fc0
07c0
83c0
ff80
ff00
0c00
1800
0400
1600
1e00
ENDCHAR
STARTCHAR tcaron
ENCODING 187
SWIDTH 617 0
DWIDTH 12 0
BBX 9 18 1 0
BITMAP
0780
0780
0780
0380
0300
7600
7000
fc00
fc00
7000
7000
7000
7000
7000
7000
7400
7c00
3c00
ENDCHAR
STARTCHAR zacute
ENCODING 188
SWIDTH 608 0
DWIDTH 12 0
BBX 10 14 1 0
BITMAP
0700
1c00
0000
ffc0
ffc0
0780
0700
0f00
1e00
3c00
7800
f000
ffc0
ffc0
ENDCHAR
STARTCHAR doubleacute
ENCODING 189
SWIDTH 675 0
DWIDTH 13 0
BBX 8 2 4 12
BITMAP
3f
fc
ENDCHAR
STARTCHAR zcaron
ENCODING 190
SWIDTH 608 0
DWIDTH 12 0
BBX 10 14 1 0
BITMAP
7700
1c00
0000
ffc0
ffc0
0780
0700
0f00
1e00
3c00
7800
f000
ffc0
ffc0
ENDCHAR
STARTCHAR zabovedot
ENCODING 191
SWIDTH 608 0
DWIDTH 12 0
BBX 10 14 1 0
BITMAP
1c00
1c00
0000
ffc0
ffc0
0780
0700
0f00
1e00
3c00
7800
f000
ffc0
ffc0
ENDCHAR
STARTCHAR Racute
ENCODING 192
SWIDTH 734 0
DWIDTH 15 0
BBX 13 17 2 0
BITMAP
0380
0e00
0000
ff80
ffc0
e0e0
e0e0
e0e0
e1c0
ff80
ff00
e700
e380
e3c0
e1e0
e1e0
e0f8
ENDCHAR
STARTCHAR Aacute
ENCODING 193
SWIDTH 773 0
DWIDTH 15 0
BBX 15 17 0 0
BITMAP
00e0
0380
0000
0780
07c0
07c0
0de0
0ce0
0ce0
1870
1870
3ff8
3ff8
3038
603c
601c
e01e
ENDCHAR
STARTCHAR Acircumflex
ENCODING 194
SWIDTH 773 0
DWIDTH 15 0
BBX 15 17 0 0
BITMAP
0380
0ee0
0000
0780
07c0
07c0
0de0
0ce0
0ce0
1870
1870
3ff8
3ff8
3038
603c
601c
e01e
ENDCHAR
STARTCHAR Abreve
ENCODING 195
SWIDTH 773 0
DWIDTH 15 0
BBX 15 17 0 0
BITMAP
0ee0
07c0
0000
0780
07c0
07c0
0de0
0ce0
0ce0
1870
1870
3ff8
3ff8
3038
603c
601c
e01e
ENDCHAR
STARTCHAR Adiaeresis
ENCODING 196
SWIDTH 773 0
DWIDTH 15 0
BBX 15 17 0 0
BITMAP
0ee0
0ee0
0000
0780
07c0
07c0
0de0
0ce0
0ce0
1870
1870
3ff8
3ff8
3038
603c
601c
e01e
ENDCHAR
STARTCHAR Lacute
ENCODING 197
SWIDTH 620 0
DWIDTH 12 0
BBX 10 17 2 0
BITMAP
3800
e000
0000
e000
e000
e000
e000
e000
e000
e000
e000
e000
e000
e000
e000
ffc0
ffc0
ENDCHAR
STARTCHAR Cacute
ENCODING 198
SWIDTH 726 0
DWIDTH 15 0
BBX 13 17 1 0
BITMAP
01c0
0700
0000
07f8
1ff8
7c18
7000
f000
e000
e000
e000
e000
f000
7000
7c08
1ff8
0ff0
ENDCHAR
STARTCHAR Ccedilla
ENCODING 199
SWIDTH 726 0
DWIDTH 15 0
BBX 13 18 1 -4
BITMAP
07f8
1ff8
7c18
7000
f000
e000
e000
e000
e000
f000
7000
7c08
1ff8
0ff0
0200
0100
0580
0780
ENDCHAR
STARTCHAR Ccaron
ENCODING 200
SWIDTH 726 0
DWIDTH 15 0
BBX 13 17 1 0
BITMAP
1dc0
0700
0000
07f8
1ff8
7c18
7000
f000
e000
e000
e000
e000
f000
7000
7c08
1ff8
0ff0
ENDCHAR
STARTCHAR Eacute
ENCODING 201
SWIDTH 645 0
DWIDTH 13 0
BBX 10 17 2 0
BITMAP
0700
1c00
0000
ffc0
ffc0
e000
e000
e000
e000
ff00
ff00
e000
e000
e000
e000
ffc0
ffc0
ENDCHAR
STARTCHAR Eogonek
ENCODING 202
SWIDTH 645 0
DWIDTH 13 0
BBX 10 16 2 -2
BITMAP
ffc0
ffc0
e000
e000
e000
e000
ff00
ff00
e000
e000
e000
e000
ffc0
ffc0
1c00
1e00
ENDCHAR
STARTCHAR Ediaeresis
ENCODING 203
SWIDTH 645 0
DWIDTH 13 0
BBX 10 17 2 0
BITMAP
7700
7700
0000
ffc0
ffc0
e000
e000
e000
e000
ff00
ff00
e000
e000
e000
e000
ffc0
ffc0
ENDCHAR
STARTCHAR Ecaron
ENCODING 204
SWIDTH 645 0
DWIDTH 13 0
BBX 10 17 2 0
BITMAP
7700
1c00
0000
ffc0
ffc0
e000
e000
e000
e000
ff00
ff00
e000
e000
e000
e000
ffc0
ffc0
ENDCHAR
STARTCHAR Iacute
ENCODING 205
SWIDTH 361 0
DWIDTH 7 0
BBX 5 17 2 0
BITMAP
38
e0
00
e0
e0
e0
e0
e0
e0
e0
e0
e0
e0
e0
e0
e0
e0
ENDCHAR
STARTCHAR Icircumflex
ENCODING 206
SWIDTH 361 0
DWIDTH 7 0
BBX 7 17 4 0
BITMAP
38
ee
00
38
38
38
38
38
38
38
38
38
38
38
38
38
38
ENDCHAR
STARTCHAR Dcaron
ENCODING 207
SWIDTH 819 0
DWIDTH 16 0
BBX 14 17 2 0
BITMAP
1dc0
0700
0000
ffc0
fff0
e0f8
e038
e03c
e01c
e01c
e01c
e01c
e01c
e038
e078
fff0
ffc0
ENDCHAR
STARTCHAR Dstroke
ENCODING 208
SWIDTH 819 0
DWIDTH 16 0
BBX 16 14 0 0
BITMAP
3ff0
3ffc
383e
380e
380f
3807
ff07
ff07
3807
3807
380e
381e
3ffc
3ff0
ENDCHAR
STARTCHAR Nacute
ENCODING 209
SWIDTH 783 0
DWIDTH 16 0
BBX 12 17 2 0
BITMAP
0380
0e00
0000
e030
f030
f030
f830
fc30
de30
ce30
c730
c7b0
c3f0
c1f0
c0f0
c0f0
c070
ENDCHAR
STARTCHAR Ncaron
ENCODING 210
SWIDTH 783 0
DWIDTH 16 0
BBX 12 17 2 0
BITMAP
3b80
0e00
0000
e030
f030
f030
f830
fc30
de30
ce30
c730
c7b0
c3f0
c1f0
c0f0
c0f0
c070
ENDCHAR
STARTCHAR Oacute
ENCODING 211
SWIDTH 855 0
DWIDTH 17 0
BBX 16 17 1 0
BITMAP
00e0
0380
0000
07e0
1ff8
3c3c
700e
f00f
e007
e007
e007
e007
f00f
700e
3c3c
1ff8
07e0
ENDCHAR
STARTCHAR Ocircumflex
ENCODING 212
SWIDTH 855 0
DWIDTH 17 0
BBX 16 17 1 0
BITMAP
01c0
0770
0000
07e0
1ff8
3c3c
700e
f00f
e007
e007
e007
e007
f00f
700e
3c3c
1ff8
07e0
ENDCHAR
STARTCHAR Odoubleacute
ENCODING 213
SWIDTH 855 0
DWIDTH 17 0
BBX 16 17 1 0
BITMAP
01f8
07e0
0000
07e0
1ff8
3c3c
700e
f00f
e007
e007
e007
e007
f00f
700e
3c3c
1ff8
07e0
ENDCHAR
STARTCHAR Odiaeresis
ENCODING 214
SWIDTH 855 0
DWIDTH 17 0
BBX 16 17 1 0
BITMAP
0770
0770
0000
07e0
1ff8
3c3c
700e
f00f
e007
e007
e007
e007
f00f
700e
3c3c
1ff8
07e0
ENDCHAR
STARTCHAR multiply
ENCODING 215
SWIDTH 687 0
DWIDTH 14 0
BBX 12 12 1 0
BITMAP
4020
e070
70e0
39c0
1f80
0f00
0f00
1f80
39c0
70e0
e070
4020
ENDCHAR
STARTCHAR Rcaron
ENCODING 216
SWIDTH 734 0
DWIDTH 15 0
BBX 13 17 2 0
BITMAP
3b80
0e00
0000
ff80
ffc0
e0e0
e0e0
e0e0
e1c0
ff80
ff00
e700
e380
e3c0
e1e0
e1e0
e0f8
ENDCHAR
STARTCHAR Uring
ENCODING 217
SWIDTH 783 0
DWIDTH 16 0
BBX 12 17 2 0
BITMAP
0e00
0e00
0000
e070
e070
e070
e070
e070
e070
e070
e070
e070
e070
e070
70e0
7fe0
1f80
ENDCHAR
STARTCHAR Uacute
ENCODING 218
SWIDTH 783 0
DWIDTH 16 0
BBX 12 17 2 0
BITMAP
0380
0e00
0000
e070
e070
e070
e070
e070
e070
e070
e070
e070
e070
e070
70e0
7fe0
1f80
ENDCHAR
STARTCHAR Udoubleacute
ENCODING 219
SWIDTH 783 0
DWIDTH 16 0
BBX 12 17 2 0
BITMAP
07e0
1f80
0000
e070
e070
e070
e070
e070
e070
e070
e070
e070
e070
e070
70e0
7fe0
1f80
ENDCHAR
STARTCHAR Udiaeresis
ENCODING 220
SWIDTH 783 0
DWIDTH 16 0
BBX 12 17 2 0
BITMAP
1dc0
1dc0
0000
e070
e070
e070
e070
e070
e070
e070
e070
e070
e070
e070
70e0
7fe0
1f80
ENDCHAR
STARTCHAR Yacute
ENCODING 221
SWIDTH 738 0
DWIDTH 15 0
BBX 13 17 1 0
BITMAP
01c0
0700
0000
f038
7830
3860
3ce0
1cc0
0fc0
0f80
0700
0700
0700
0700
0700
0700
0700
ENDCHAR
STARTCHAR Tcedilla
ENCODING 222
SWIDTH 735 0
DWIDTH 15 0
BBX 13 19 1 -5
BITMAP
fff8
fff8
0700
0700
0700
0700
0700
0700
0700
0700
0700
0700
0700
0700
0300
0600
0100
0580
0780
ENDCHAR
STARTCHAR ssharp
ENCODING 223
SWIDTH 724 0
DWIDTH 14 0
BBX 13 14 1 0
BITMAP
1f00
7fc0
e3c0
e380
e700
e600
ef00
efc0
e7e0
e1f0
e078
e078
e7f0
e7e0
ENDCHAR
STARTCHAR racute
ENCODING 224
SWIDTH 500 0
DWIDTH 10 0
BBX 7 14 2 0
BITMAP
0e
38
00
e6
fe
fe
f0
e0
e0
e0
e0
e0
e0
e0
ENDCHAR
STARTCHAR aacute
ENCODING 225
SWIDTH 623 0
DWIDTH 12 0
BBX 11 14 1 0
BITMAP
0380
0e00
0000
3f00
7f80
41c0
01c0
3fc0
7fc0
f1c0
e1c0
e3c0
ffe0
79e0
ENDCHAR
STARTCHAR acircumflex
ENCODING 226
SWIDTH 623 0
DWIDTH 12 0
BBX 11 14 1 0
BITMAP
0e00
3b80
0000
3f00
7f80
41c0
01c0
3fc0
7fc0
f1c0
e1c0
e3c0
ffe0
79e0
ENDCHAR
STARTCHAR abreve
ENCODING 227
SWIDTH 623 0
DWIDTH 12 0
BBX 11 14 1 0
BITMAP
7700
3e00
0000
3f00
7f80
41c0
01c0
3fc0
7fc0
f1c0
e1c0
e3c0
ffe0
79e0
ENDCHAR
STARTCHAR adiaeresis
ENCODING 228
SWIDTH 623 0
DWIDTH 12 0
BBX 11 14 1 0
BITMAP
3b80
3b80
0000
3f00
7f80
41c0
01c0
3fc0
7fc0
f1c0
e1c0
e3c0
ffe0
79e0
ENDCHAR
STARTCHAR lacute
ENCODING 229
SWIDTH 361 0
DWIDTH 7 0
BBX 5 17 2 0
BITMAP
38
e0
00
e0
e0
e0
e0
e0
e0
e0
e0
e0
e0
e0
e0
e0
e0
ENDCHAR
STARTCHAR cacute
ENCODING 230
SWIDTH 545 0
DWIDTH 11 0
BBX 8 14 2 0
BITMAP
07
1c
00
1f
7f
71
e0
e0
e0
e0
e0
70
7f
1f
ENDCHAR
STARTCHAR ccedilla
ENCODING 231
SWIDTH 545 0
DWIDTH 11 0
BBX 8 15 2 -4
BITMAP
1f
7f
71
e0
e0
e0
e0
e0
70
7f
1f
30
08
2c
3c
ENDCHAR
STARTCHAR ccaron
ENCODING 232
SWIDTH 545 0
DWIDTH 11 0
BBX 8 14 2 0
BITMAP
77
1c
00
1f
7f
71
e0
e0
e0
e0
e0
70
7f
1f
ENDCHAR
STARTCHAR eacute
ENCODING 233
SWIDTH 614 0
DWIDTH 12 0
BBX 11 14 0 0
BITMAP
0380
0e00
0000
1f00
3fc0
79c0
f0e0
e0e0
ffe0
ffe0
f000
7820
3fe0
1fc0
ENDCHAR
STARTCHAR eogonek
ENCODING 234
SWIDTH 614 0
DWIDTH 12 0
BBX 11 13 0 -2
BITMAP
1f00
3fc0
79c0
f0e0
e0e0
ffe0
ffe0
f000
7820
3fe0
1fc0
0e00
0f00
ENDCHAR
STARTCHAR ediaeresis
ENCODING 235
SWIDTH 614 0
DWIDTH 12 0
BBX 11 14 0 0
BITMAP
3b80
3b80
0000
1f00
3fc0
79c0
f0e0
e0e0
ffe0
ffe0
f000
7820
3fe0
1fc0
ENDCHAR
STARTCHAR ecaron
ENCODING 236
SWIDTH 614 0
DWIDTH 12 0
BBX 11 14 0 0
BITMAP
3b80
0e00
0000
1f00
3fc0
79c0
f0e0
e0e0
ffe0
ffe0
f000
7820
3fe0
1fc0
ENDCHAR
STARTCHAR iacute
ENCODING 237
SWIDTH 361 0
DWIDTH 7 0
BBX 5 14 2 0
BITMAP
38
e0
00
e0
e0
e0
e0
e0
e0
e0
e0
e0
e0
e0
ENDCHAR
STARTCHAR icircumflex
ENCODING 238
SWIDTH 361 0
DWIDTH 7 0
BBX 7 14 4 0
BITMAP
38
ee
00
38
38
38
38
38
38
38
38
38
38
38
ENDCHAR
STARTCHAR dcaron
ENCODING 239
SWIDTH 977 0
DWIDTH 19 0
BBX 17 16 0 0
BITMAP
000780
000780
007780
007380
007300
1f7600
7ff000
70f000
f07000
e07000
e07000
e07000
e07000
70f000
7f7000
3e7000
ENDCHAR
STARTCHAR dstroke
ENCODING 240
SWIDTH 874 0
DWIDTH 17 0
BBX 15 14 0 0
BITMAP
0070
03fe
0070
1f70
7ff0
70f0
f070
e070
e070
e070
e070
70f0
7f70
3e70
ENDCHAR
STARTCHAR nacute
ENCODING 241
SWIDTH 693 0
DWIDTH 14 0
BBX 11 14 1 0
BITMAP
0700
1c00
0000
e780
ffc0
f0e0
e0e0
e0e0
e0e0
e0e0
e0e0
e0e0
e0e0
e0e0
ENDCHAR
STARTCHAR ncaron
ENCODING 242
SWIDTH 693 0
DWIDTH 14 0
BBX 11 14 1 0
BITMAP
7700
1c00
0000
e780
ffc0
f0e0
e0e0
e0e0
e0e0
e0e0
e0e0
e0e0
e0e0
e0e0
ENDCHAR
STARTCHAR oacute
ENCODING 243
SWIDTH 675 0
DWIDTH 13 0
BBX 12 14 1 0
BITMAP
0380
0e00
0000
1f80
3fc0
70e0
e070
e070
e070
e070
e070
70e0
3fc0
1f80
ENDCHAR
STARTCHAR ocircumflex
ENCODING 244
SWIDTH 675 0
DWIDTH 13 0
BBX 12 14 1 0
BITMAP
0700
1dc0
0000
1f80
3fc0
70e0
e070
e070
e070
e070
e070
70e0
3fc0
1f80
ENDCHAR
STARTCHAR odoubleacute
ENCODING 245
SWIDTH 675 0
DWIDTH 13 0
BBX 12 14 1 0
BITMAP
07e0
1f80
0000
1f80
3fc0
70e0
e070
e070
e070
e070
e070
70e0
3fc0
1f80
ENDCHAR
STARTCHAR odiaeresis
ENCODING 246
SWIDTH 675 0
DWIDTH 13 0
BBX 12 14 1 0
BITMAP
1dc0
1dc0
0000
1f80
3fc0
70e0
e070
e070
e070
e070
e070
70e0
3fc0
1f80
ENDCHAR
STARTCHAR division
ENCODING 247
SWIDTH 687 0
DWIDTH 14 0
BBX 12 12 1 0
BITMAP
0c00
0c00
0000
0000
0000
fff0
fff0
0000
0000
0000
0c00
0c00
ENDCHAR
STARTCHAR rcaron
ENCODING 248
SWIDTH 500 0
DWIDTH 10 0
BBX 7 14 2 0
BITMAP
ee
38
00
e6
fe
fe
f0
e0
e0
e0
e0
e0
e0
e0
ENDCHAR
STARTCHAR uring
ENCODING 249
SWIDTH 693 0
DWIDTH 14 0
BBX 11 14 1 0
BITMAP
0e00
0e00
0000
e0e0
e0e0
e0e0
e0e0
e0e0
e0e0
e0e0
e0e0
e1e0
7fe0
3ce0
ENDCHAR
STARTCHAR uacute
ENCODING 250
SWIDTH 693 0
DWIDTH 14 0
BBX 11 14 1 0
BITMAP
0380
0e00
0000
e0e0
e0e0
e0e0
e0e0
e0e0
e0e0
e0e0
e0e0
e1e0
7fe0
3ce0
ENDCHAR
STARTCHAR udoubleacute
ENCODING 251
SWIDTH 693 0
DWIDTH 14 0
BBX 11 14 1 0
BITMAP
07e0
1f80
0000
e0e0
e0e0
e0e0
e0e0
e0e0
e0e0
e0e0
e0e0
e1e0
7fe0
3ce0
ENDCHAR
STARTCHAR udiaeresis
ENCODING 252
SWIDTH 693 0
DWIDTH 14 0
BBX 11 14 1 0
BITMAP
3b80
3b80
0000
e0e0
e0e0
e0e0
e0e0
e0e0
e0e0
e0e0
e0e0
e1e0
7fe0
3ce0
ENDCHAR
STARTCHAR yacute
ENCODING 253
SWIDTH 645 0
DWIDTH 13 0
BBX 12 18 0 -4
BITMAP
0380
0e00
0000
f070
7060
78e0
38c0
38c0
3d80
1d80
1f00
0f00
0e00
0e00
0e00
1c00
3c00
7800
ENDCHAR
STARTCHAR tcedilla
ENCODING 254
SWIDTH 436 0
DWIDTH 9 0
BBX 6 18 1 -5
BITMAP
70
70
fc
fc
70
70
70
70
70
70
74
7c
3c
30
60
10
58
78
ENDCHAR
STARTCHAR abovedot
ENCODING 255
SWIDTH 675 0
DWIDTH 13 0
BBX 3 2 5 12
BITMAP
e0
e0
ENDCHAR
ENDFONT
